<?xml version="1.0" encoding="UTF-8" standalone="no"?>
<!-- Created with Inkscape (http://www.inkscape.org/) -->

<svg
   width="161.28972mm"
   height="161.28972mm"
   viewBox="0 0 161.28972 161.28972"
   version="1.1"
   id="svg5"
   inkscape:version="1.1.2 (0a00cf5339, 2022-02-04)"
   sodipodi:docname="hourglass_favicon.svg"
   xmlns:inkscape="http://www.inkscape.org/namespaces/inkscape"
   xmlns:sodipodi="http://sodipodi.sourceforge.net/DTD/sodipodi-0.dtd"
   xmlns="http://www.w3.org/2000/svg"
   xmlns:svg="http://www.w3.org/2000/svg">
  <sodipodi:namedview
     id="namedview7"
     pagecolor="#505050"
     bordercolor="#ffffff"
     borderopacity="1"
     inkscape:pageshadow="0"
     inkscape:pageopacity="0"
     inkscape:pagecheckerboard="1"
     inkscape:document-units="mm"
     showgrid="false"
     inkscape:zoom="0.13748183"
     inkscape:cx="-178.20537"
     inkscape:cy="-2880.3807"
     inkscape:window-width="1920"
     inkscape:window-height="2088"
     inkscape:window-x="0"
     inkscape:window-y="0"
     inkscape:window-maximized="0"
     inkscape:current-layer="layer1"
     fit-margin-top="0"
     fit-margin-left="0"
     fit-margin-right="0"
     fit-margin-bottom="0"
     lock-margins="true" />
  <defs
     id="defs2" />
  <g
     inkscape:label="Layer 1"
     inkscape:groupmode="layer"
     id="layer1"
     style="display:inline"
     transform="translate(-22.929535,-78.507111)">
    <rect
       style="fill:#000000;fill-opacity:1;stroke:none;stroke-width:2.16006;stroke-linecap:square;stroke-linejoin:miter;stroke-miterlimit:4;stroke-dasharray:none;stroke-opacity:1"
       id="rect34575"
       width="161.28972"
       height="161.28972"
       x="22.929535"
       y="78.507111"
       inkscape:export-filename="/home/henrique/Downloads/wastingnotime/hourglass.png"
       inkscape:export-xdpi="72.760002"
       inkscape:export-ydpi="72.760002" />
    <path
       id="path848"
       style="color:#000000;fill:#6e4fda;stroke:none;stroke-width:15.7077;stroke-linejoin:round;stroke-miterlimit:4;stroke-dasharray:none;stroke-opacity:1"
       d="m 233.66016,359.91602 a 13.506818,13.506818 0 0 0 -13.20899,10.69336 c 0,0 -3.92737,19.71611 3.42578,46.26367 7.35316,26.54755 25.85862,61.18395 67.92383,94.74804 38.79518,30.95486 53.67801,54.35378 59.16016,68.52149 2.74107,7.08389 3.20156,11.89422 3.18945,14.61133 -0.0121,2.71706 -0.0215,2.06054 -0.0215,2.06054 a 13.506818,13.506818 0 0 0 0.50586,10.5918 c 0,0 -0.57031,-1.42809 -0.60157,-1.56445 -0.0314,-0.13644 0.0548,0.14932 0.0508,0.97851 -0.008,1.65816 -0.38688,5.54242 -3.1621,12.15625 -5.55046,13.22771 -20.90643,37.15062 -59.85352,73.06641 -44.77816,41.293 -63.14831,75.37655 -69.74219,100.32812 -3.29694,12.47577 -3.60817,22.5967 -2.91992,29.83789 0.68825,7.2412 2.82813,12.69922 2.82813,12.69922 a 13.506818,13.506818 0 0 0 12.42578,8.21289 h 314.7207 a 13.506818,13.506818 0 0 0 11.70312,-6.76562 c 0,0 2.85797,-5.43182 4.00196,-12.50781 1.14398,-7.076 1.23811,-16.97107 -1.83203,-29.26954 -6.14034,-24.59697 -24.57522,-58.53901 -71.29297,-102.44726 -37.6828,-35.41663 -53.15216,-59.35105 -59.11524,-72.9668 -2.98151,-6.80787 -3.62711,-11.00214 -3.74609,-12.95703 -0.046,-0.75811 -0.0189,-1.09555 -0.004,-1.23242 a 13.506818,13.506818 0 0 0 -0.41406,-8.20899 c 0.0355,-0.0607 0.0684,-0.3289 0.0742,-1.30664 0.0113,-2.2995 0.47794,-6.73231 3.26172,-13.63086 5.56754,-13.79705 20.69986,-37.43865 59.45703,-70.48828 41.60436,-35.47751 59.99057,-69.87074 67.43359,-95.85937 7.44306,-25.98868 3.66407,-44.9336 3.66407,-44.93359 A 13.506818,13.506818 0 0 0 548.3788,359.91602 Z m 12.6582,27.01367 h 289.26758 c -0.24492,5.22569 -1.04453,12.04372 -3.64258,21.11523 -5.96999,20.84534 -20.91569,50.27161 -58.99609,82.74414 -40.92768,34.90046 -59.12911,61.48953 -66.97461,80.93164 -3.92278,9.72106 -5.18694,17.65789 -5.22266,23.57618 -0.0113,2.15742 0.33356,3.94635 0.63086,5.71679 -0.26343,1.83262 -0.40447,4.10361 -0.23828,6.83594 0.33864,5.56157 1.91154,12.89778 5.96289,22.14844 8.1027,18.50128 25.96444,44.79431 65.35547,81.8164 44.22867,41.56887 59.12667,71.44742 63.58398,89.30274 1.69622,6.79461 1.77985,11.40337 1.54688,14.99219 h -6.35938 a 7.8543489,7.8543489 0 0 0 -1.36328,-8.28907 c 0,0 -36.469,-41.05611 -59.34766,-59.33984 -12.60302,-10.07184 -22.03862,-13.28497 -32.36523,-18.11328 -10.32661,-4.82835 -22.60631,-11.57818 -43.90039,-29.94336 a 7.8543489,7.8543489 0 0 0 -10.39648,0.11719 c -20.14075,18.20046 -32.43997,25.01684 -43.11915,30.07226 -10.67917,5.05542 -20.71699,8.60725 -33.25585,19.08984 -21.53623,18.00446 -54.48829,58.35547 -54.48829,58.35547 a 7.8543489,7.8543489 0 0 0 -1.06836,8.05079 h -6.63867 c -0.0876,-4.15919 0.19628,-9.44535 2.15039,-16.83985 4.98218,-18.85277 19.89097,-48.59139 61.93946,-87.36719 40.70166,-37.5338 58.62916,-63.83997 66.44921,-82.47656 3.91006,-9.31831 5.23977,-16.77425 5.26758,-22.47461 0.0113,-2.34493 -0.28829,-4.17188 -0.60547,-5.8789 0.31522,-1.8539 0.66126,-3.81617 0.67188,-6.19727 0.0265,-6.12779 -1.12391,-14.44115 -5.00781,-24.47852 -7.76785,-20.07477 -26.1702,-46.90673 -67.50586,-79.88867 -38.06563,-30.37277 -52.84143,-59.55397 -58.73828,-80.84375 -2.6724,-9.6483 -3.43448,-17.12329 -3.5918,-22.73437 z m 197.74219,78.65234 c -2.49874,-0.0449 -5.10846,0.003 -7.81055,0.16992 v -0.002 c -12.97005,0.80122 -28.06037,4.35475 -43.14844,13.68164 -17.08672,10.56242 -29.58517,15.6489 -37.57617,18.09766 -7.991,2.44879 -10.63672,2.27929 -10.63672,2.27929 l 0.80664,0.59375 c -1.84635,0.11377 -4.49368,0.27539 -4.49414,0.27539 -6.4e-4,3.4e-4 -3.86955,9.40302 -3.86914,9.4043 a 7.8543489,7.8543489 0 0 0 6.57031,4.83399 c -0.74062,0.0457 -1.81103,0.1129 -1.81054,0.11328 0.002,6.4e-4 -0.98114,-0.43613 -1.19727,-0.56055 -0.21611,-0.12435 -0.33909,-0.20572 -0.4375,-0.27148 -0.39359,-0.26344 -0.42463,-0.30609 -0.47656,-0.34766 -0.10386,-0.0831 -0.0567,-0.045 0.0195,0.0234 0.15201,0.13304 0.47952,0.42621 0.9082,0.82812 0.85737,0.80383 2.16066,2.06781 3.77149,3.73242 3.22164,3.32924 7.68219,8.26575 12.43554,14.42774 9.50669,12.32402 20.11583,29.5821 24.78321,48.5664 0.15307,0.62306 0.89457,8.42596 1.1289,17.33789 0.0964,3.66369 0.0777,8.32648 0.12305,12.50977 -0.13984,5.45125 -0.4771,10.80627 -0.51172,16.1543 -0.11679,18.02744 0.34303,27.36672 0.57422,33.55664 -0.002,2.08244 -0.0112,4.39862 0.004,5.82422 0.0113,1.12418 0.0265,2.00873 0.0586,2.75976 0.0189,0.37569 0.0247,0.68114 0.0859,1.20899 0.0302,0.26381 0.0272,0.50909 0.25586,1.34179 0.1149,0.41632 0.14669,0.94425 1.04883,2.29883 0.45104,0.67729 2.91735,2.61782 2.91992,2.61914 0.002,0.001 6.6204,0.30154 6.62304,0.30078 a 7.8543489,7.8543489 0 0 0 4.85547,-7.61523 c 0,0 -0.0913,-7.0394 -0.14648,-8.48828 10e-4,-1.2638 -0.008,-2.05323 0,-3.54883 0.0302,-7.55728 0.10137,-17.82532 0.10742,-28.47656 0.002,-5.25487 -0.10378,-10.0535 -0.14648,-15.22461 0.59489,-18.74464 1.89317,-37.5312 4.49609,-45.50781 5.04782,-15.46889 23.10309,-37.553 39.9707,-54.66016 16.86762,-17.1072 32.27344,-29.73438 32.27344,-29.73438 a 7.8543489,7.8543489 0 0 0 -2.0293,-13.35156 c 0,0 -12.03811,-4.83614 -29.52929,-5.15039 z"
       transform="scale(0.26458333)" />
  </g>
</svg>
